<?xml version="1.0" encoding="UTF-8" standalone="no"?>
<!-- Created with Inkscape (http://www.inkscape.org/) -->

<svg
   xmlns:dc="http://purl.org/dc/elements/1.1/"
   xmlns:cc="http://creativecommons.org/ns#"
   xmlns:rdf="http://www.w3.org/1999/02/22-rdf-syntax-ns#"
   xmlns:svg="http://www.w3.org/2000/svg"
   xmlns="http://www.w3.org/2000/svg"
   xmlns:sodipodi="http://sodipodi.sourceforge.net/DTD/sodipodi-0.dtd"
   xmlns:inkscape="http://www.inkscape.org/namespaces/inkscape"
   width="800"
   height="200"
   id="svg2"
   version="1.1"
   inkscape:version="0.48.5 r10040"
   sodipodi:docname="land-0.svg">
  <defs
     id="defs4" />
  <sodipodi:namedview
     id="base"
     pagecolor="#ffffff"
     bordercolor="#666666"
     borderopacity="1.0"
     inkscape:pageopacity="0.0"
     inkscape:pageshadow="2"
     inkscape:zoom="0.94236332"
     inkscape:cx="375"
     inkscape:cy="62.857143"
     inkscape:document-units="px"
     inkscape:current-layer="layer1"
     showgrid="false"
     inkscape:window-width="1920"
     inkscape:window-height="1053"
     inkscape:window-x="1911"
     inkscape:window-y="-9"
     inkscape:window-maximized="1" />
  <metadata
     id="metadata7">
    <rdf:RDF>
      <cc:Work
         rdf:about="">
        <dc:format>image/svg+xml</dc:format>
        <dc:type
           rdf:resource="http://purl.org/dc/dcmitype/StillImage" />
        <dc:title></dc:title>
      </cc:Work>
    </rdf:RDF>
  </metadata>
  <g
     inkscape:label="Layer 1"
     inkscape:groupmode="layer"
     id="layer1"
     transform="translate(0,-852.36218)">
    <path
       id="path2987"
       style="fill:#004500;fill-opacity:1;stroke:none"
       d="m 800.11603,32.336429 0.89156,170.848021 -802.4261935,-0.011 1.45464517,-189.126622 c 0,0 77.58260433,14.815198 114.56943833,15.106155 31.16863,0.245188 56.20785,2.61541 87.01527,-2.122324 26.50132,-4.075517 49.63857,-4.783456 76.40365,-3.183485 25.61061,1.530959 52.3331,6.510991 77.46482,11.67278 27.29348,5.605792 54.96428,13.452148 82.77062,11.67278 18.66892,-1.194652 23.80552,-9.039815 42.44648,-10.611618 17.71139,-1.493422 44.88591,7.7203 62.60855,6.366971 24.03758,-1.835547 41.80085,6.610576 65.79203,4.244648 25.38402,-2.503285 53.27761,-15.297041 78.52597,-11.672781 27.68699,3.974311 39.00182,-8.029898 66.8532,-10.611618 9.61993,-0.891732 46.69112,-9.550457 46.69112,-9.550457"
       inkscape:connector-curvature="0"
       sodipodi:nodetypes="ccccssssssssssc"
       transform="translate(0,852.36218)" />
  </g>
</svg>
