<?xml version="1.0" encoding="UTF-8" standalone="no"?>
<!-- Created with Inkscape (http://www.inkscape.org/) -->

<svg
   xmlns:dc="http://purl.org/dc/elements/1.1/"
   xmlns:cc="http://creativecommons.org/ns#"
   xmlns:rdf="http://www.w3.org/1999/02/22-rdf-syntax-ns#"
   xmlns:svg="http://www.w3.org/2000/svg"
   xmlns="http://www.w3.org/2000/svg"
   xmlns:sodipodi="http://sodipodi.sourceforge.net/DTD/sodipodi-0.dtd"
   xmlns:inkscape="http://www.inkscape.org/namespaces/inkscape"
   width="800"
   height="100"
   id="svg4278"
   version="1.1"
   inkscape:version="0.48.5 r10040"
   sodipodi:docname="land-2.svg">
  <defs
     id="defs4280" />
  <sodipodi:namedview
     id="base"
     pagecolor="#ffffff"
     bordercolor="#666666"
     borderopacity="1.0"
     inkscape:pageopacity="0.0"
     inkscape:pageshadow="2"
     inkscape:zoom="1.33"
     inkscape:cx="426.2953"
     inkscape:cy="103.41398"
     inkscape:document-units="px"
     inkscape:current-layer="layer1"
     showgrid="false"
     inkscape:window-width="1920"
     inkscape:window-height="1053"
     inkscape:window-x="1911"
     inkscape:window-y="-9"
     inkscape:window-maximized="1" />
  <metadata
     id="metadata4283">
    <rdf:RDF>
      <cc:Work
         rdf:about="">
        <dc:format>image/svg+xml</dc:format>
        <dc:type
           rdf:resource="http://purl.org/dc/dcmitype/StillImage" />
      </cc:Work>
    </rdf:RDF>
  </metadata>
  <g
     inkscape:label="Layer 1"
     inkscape:groupmode="layer"
     id="layer1"
     transform="translate(0,-952.36218)">
    <path
       style="fill:#007d00;fill-opacity:1;stroke:none"
       d="m 0,1010.5722 c 0,0 30.477971,2.4309 45.864662,2.5467 18.10547,0.1363 36.102334,-2.9777 54.135338,-2.1829 15.25789,0.6725 29.30424,4.4497 44.3609,5.821 16.10217,1.4666 32.51732,2.0667 48.87218,2.5467 18.01374,0.5287 51.12782,0.3638 54.13534,0.3638 3.00752,0 35.48953,-2.674 53.38346,-3.2743 20.25369,-0.6794 40.7079,-1.3754 60.90226,-0.3638 20.6854,1.0362 57.14285,6.5486 60.90225,6.5486 3.7594,0 51.36384,-1.5685 76.69173,-3.6381 22.11759,-1.8072 43.0785,-6.6385 65.41353,-7.6401 23.98998,-1.0757 48.16847,0.8653 72.18046,1.8191 24.63278,0.9784 48.97659,4.3066 73.68421,4.0019 17.01127,-0.2097 33.68088,-2.4083 50.37594,-4.0019 C 774.02448,1011.8664 800,1008.7531 800,1008.7531 l 1.50376,45.1128 L 0,1053.5021 z"
       id="path4286"
       inkscape:connector-curvature="0"
       sodipodi:nodetypes="cssssssssssssscccc" />
  </g>
</svg>
