<?xml version="1.0" encoding="UTF-8" standalone="no"?>
<!-- Created with Inkscape (http://www.inkscape.org/) -->

<svg
   xmlns:dc="http://purl.org/dc/elements/1.1/"
   xmlns:cc="http://creativecommons.org/ns#"
   xmlns:rdf="http://www.w3.org/1999/02/22-rdf-syntax-ns#"
   xmlns:svg="http://www.w3.org/2000/svg"
   xmlns="http://www.w3.org/2000/svg"
   xmlns:sodipodi="http://sodipodi.sourceforge.net/DTD/sodipodi-0.dtd"
   xmlns:inkscape="http://www.inkscape.org/namespaces/inkscape"
   width="800"
   height="150"
   id="svg3760"
   version="1.1"
   inkscape:version="0.48.5 r10040"
   sodipodi:docname="land-1.svg">
  <defs
     id="defs3762" />
  <sodipodi:namedview
     id="base"
     pagecolor="#ffffff"
     bordercolor="#666666"
     borderopacity="1.0"
     inkscape:pageopacity="0.0"
     inkscape:pageshadow="2"
     inkscape:zoom="1.53"
     inkscape:cx="375.63561"
     inkscape:cy="69.295775"
     inkscape:document-units="px"
     inkscape:current-layer="layer1"
     showgrid="false"
     inkscape:window-width="1920"
     inkscape:window-height="1053"
     inkscape:window-x="1911"
     inkscape:window-y="-9"
     inkscape:window-maximized="1" />
  <metadata
     id="metadata3765">
    <rdf:RDF>
      <cc:Work
         rdf:about="">
        <dc:format>image/svg+xml</dc:format>
        <dc:type
           rdf:resource="http://purl.org/dc/dcmitype/StillImage" />
        <dc:title></dc:title>
      </cc:Work>
    </rdf:RDF>
  </metadata>
  <g
     inkscape:label="Layer 1"
     inkscape:groupmode="layer"
     id="layer1"
     transform="translate(0,-902.36218)">
    <path
       style="fill:#005800;fill-opacity:1;stroke:none"
       d="m 0,957.84967 c 0,0 26.68394,-17.04262 41.176471,-18.52792 14.782539,-1.51503 29.48108,5.09303 43.790849,10.10614 14.566907,5.10318 27.52589,17.5889 42.48366,20.21227 10.39789,1.82363 20.98993,-1.40594 31.37255,-3.36872 15.6424,-2.9571 30.60927,-11.77883 46.40523,-12.63266 14.03952,-0.7589 27.78064,7.07478 41.83006,6.73742 20.30471,-0.48756 39.92557,-9.99942 60.13072,-12.63267 21.69324,-2.82719 43.68102,-6.37817 65.35948,-3.36871 16.33945,2.26828 44.44444,16.00138 47.71242,16.00138 3.26797,0 43.22394,-6.53082 64.70588,-10.94831 22.11053,-4.54676 43.63601,-15.00859 66.01307,-16.00139 18.63519,-0.82678 37.13298,4.71166 55.55556,8.42178 19.08106,3.84274 37.55128,14.60065 56.86274,14.31703 16.28061,-0.23911 31.55352,-10.9034 47.71242,-13.47485 21.63195,-3.44239 43.68165,-5.45077 65.35948,-2.52653 8.25096,1.11301 24.183,7.5796 24.183,7.5796 l 0,105.27227 -800.65359,0 z"
       id="path3768"
       inkscape:connector-curvature="0"
       sodipodi:nodetypes="cssssssssssssssscccc" />
  </g>
</svg>
