<?xml version="1.0" encoding="UTF-8" standalone="no"?>
<!-- Created with Inkscape (http://www.inkscape.org/) -->

<svg
   xmlns:dc="http://purl.org/dc/elements/1.1/"
   xmlns:cc="http://creativecommons.org/ns#"
   xmlns:rdf="http://www.w3.org/1999/02/22-rdf-syntax-ns#"
   xmlns:svg="http://www.w3.org/2000/svg"
   xmlns="http://www.w3.org/2000/svg"
   xmlns:sodipodi="http://sodipodi.sourceforge.net/DTD/sodipodi-0.dtd"
   xmlns:inkscape="http://www.inkscape.org/namespaces/inkscape"
   width="800"
   height="100"
   id="svg5314"
   version="1.1"
   inkscape:version="0.48.5 r10040"
   sodipodi:docname="New document 9">
  <defs
     id="defs5316" />
  <sodipodi:namedview
     id="base"
     pagecolor="#ffffff"
     bordercolor="#666666"
     borderopacity="1.0"
     inkscape:pageopacity="0.0"
     inkscape:pageshadow="2"
     inkscape:zoom="1.979899"
     inkscape:cx="375"
     inkscape:cy="2.3927832"
     inkscape:document-units="px"
     inkscape:current-layer="layer1"
     showgrid="false"
     inkscape:window-width="1920"
     inkscape:window-height="1053"
     inkscape:window-x="1911"
     inkscape:window-y="-9"
     inkscape:window-maximized="1" />
  <metadata
     id="metadata5319">
    <rdf:RDF>
      <cc:Work
         rdf:about="">
        <dc:format>image/svg+xml</dc:format>
        <dc:type
           rdf:resource="http://purl.org/dc/dcmitype/StillImage" />
        <dc:title></dc:title>
      </cc:Work>
    </rdf:RDF>
  </metadata>
  <g
     inkscape:label="Layer 1"
     inkscape:groupmode="layer"
     id="layer1"
     transform="translate(0,-952.36218)">
    <path
       style="fill:#262626;fill-opacity:0.8595745;stroke:none"
       d="M 103.03556,28.784246 C 96.489247,29.644412 90.94014,22.584771 84.347738,22.218254 77.61957,21.844189 70.573042,23.551008 64.649763,26.76394 58.893371,29.886349 52.649848,34.212593 50.507627,40.401 c -3.224521,9.314934 -2.224641,21.68442 4.04061,29.294424 7.918626,9.618253 22.89957,11.858713 35.35534,12.12183 14.219903,0.300382 26.738253,-13.31528 40.911173,-12.12183 9.90382,0.833965 17.00776,11.261572 26.76905,13.131983 19.23831,3.686352 39.33278,-0.953193 58.58884,-4.545687 15.55113,-2.901287 29.70833,-12.140802 45.45687,-13.637059 21.39693,-2.032907 42.95218,2.982822 64.14469,6.565991 20.13223,3.403901 39.2892,12.04322 59.599,14.142136 30.99268,3.202938 63.01206,4.182778 93.43911,-2.525381 10.38393,-2.289312 19.05079,-9.774743 29.29442,-12.626907 11.95039,-3.327381 24.47489,-4.570915 36.87057,-5.050763 14.3245,-0.554514 28.89391,-0.380708 42.93148,2.525382 18.77557,3.88696 35.25188,15.887708 54.04316,19.697974 13.05177,2.646479 26.63945,3.238163 39.90103,2.020305 14.47655,-1.329433 28.92838,-4.70328 42.42641,-10.101525 12.11866,-4.846596 26.29454,-9.048287 33.84011,-19.697975 4.65771,-6.573813 6.96464,-16.053668 4.54568,-23.738585 -2.60951,-8.290296 -10.60941,-14.976842 -18.68782,-18.182745 -9.70344,-3.850792 -21.76924,-3.722079 -31.31473,0.505076 -6.75232,2.990216 -8.54155,12.871047 -15.15229,16.162441 -11.36751,5.659725 -25.30138,5.776392 -37.88072,4.04061 C 649.75019,37.017466 639.92825,33.117952 631.85042,27.269017 626.33311,23.274083 624.45095,15.291114 618.71843,11.611652 612.84067,7.8389695 605.38868,4.8153074 598.51538,6.0558132 591.15791,7.3837021 587.77371,18.462438 580.33264,19.187796 571.1105,20.086773 564.13021,9.5530416 555.07882,7.5710421 c -13.65035,-2.9890412 -28.2891,-3.0706431 -41.92133,0 C 502.43123,9.9871191 494.31164,20.760484 483.35799,21.713178 470.13317,22.863407 457.76903,14.63644 444.9722,11.106576 433.35686,7.9026128 422.16729,1.8115283 410.12193,1.5101268 399.25999,1.2383371 389.11725,7.537781 378.30213,8.5811946 c -12.74054,1.229173 -25.69492,-2.675597 -38.3858,-1.0101525 -7.65868,1.0050604 -15.16508,3.4281069 -22.22335,6.5659919 -8.83884,3.929469 -15.18026,13.734563 -24.74874,15.152288 -11.87588,1.759603 -23.31049,-5.779827 -34.85026,-9.091373 -11.36253,-3.260685 -22.086,-9.349591 -33.84011,-10.6066019 -9.2452,-0.9887023 -18.95069,-0.3915849 -27.7792,2.5253819 -7.67657,2.536362 -12.94676,10.363294 -20.70813,12.626906 -8.08287,2.357378 -16.96816,2.001054 -25.25381,0.505077 -9.44521,-1.705335 -17.23014,-11.669433 -26.76904,-10.606602 -8.3074,0.925617 -12.42056,13.053174 -20.70813,14.142136 z"
       id="path5324"
       inkscape:connector-curvature="0"
       transform="translate(0,952.36218)"
       sodipodi:nodetypes="sssssssssssssssssssssssssssssssssssssssssssss" />
  </g>
</svg>
